<svg width="27" height="38" viewBox="0 0 27 38" fill="none" xmlns="http://www.w3.org/2000/svg">
<g clip-path="url(#clip0_505_678)">
<path d="M25.9037 18.5533L7.77538 0.200061C7.68166 0.105375 7.56233 0.0408375 7.43245 0.0147713C7.30257 -0.0112948 7.16788 0.00220937 7.0456 0.0535565C6.92333 0.104904 6.8189 0.191738 6.74535 0.303226C6.67179 0.414714 6.63254 0.545986 6.63254 0.680086V16.1119L1.14285 10.5554C1.04912 10.4605 0.929795 10.3962 0.799915 10.3701C0.670036 10.344 0.535502 10.3575 0.413226 10.4089C0.290795 10.4602 0.186364 10.5471 0.112812 10.6585C0.0392603 10.77 1.67326e-06 10.9011 1.67326e-06 11.0354V26.9714C-0.000463844 27.4695 0.0962085 27.9625 0.284433 28.4226C0.472812 28.8825 0.748864 29.3004 1.09707 29.6521L8.24074 36.8908C8.94336 37.6021 9.89581 38.0022 10.8892 38.0033H16.1154C17.1085 38.0028 18.0608 37.6034 18.7631 36.8924L25.9053 29.6537C26.2527 29.3016 26.5281 28.8836 26.716 28.4237C26.9038 27.9636 27.0003 27.4707 27 26.9729V21.2364C27.0003 20.7381 26.9036 20.2448 26.7154 19.7844C26.5273 19.324 26.2516 18.9056 25.9037 18.5533Z" fill="#FA005A"/>
<path d="M20.3737 25.2655C20.3738 25.5662 20.2562 25.855 20.0466 26.0681L14.2881 31.9251C14.1839 32.0314 14.0597 32.1159 13.9229 32.1735C13.7863 32.231 13.6395 32.2607 13.4915 32.2607C13.3434 32.2607 13.1967 32.231 13.0601 32.1735C12.9232 32.1159 12.7991 32.0314 12.6947 31.9251L6.95484 26.0681C6.74505 25.8559 6.62681 25.5681 6.62634 25.2679V23.0395C6.62634 22.8902 6.65583 22.7424 6.71231 22.6046C6.7691 22.4667 6.85196 22.3416 6.95655 22.2362L9.02298 20.1434C9.12726 20.0374 9.25108 19.9535 9.38763 19.8962C9.52403 19.8389 9.67005 19.8094 9.81777 19.8094C9.9655 19.8094 10.1117 19.8389 10.2481 19.8962C10.3845 19.9535 10.5083 20.0374 10.6127 20.1434L13.5026 23.0711L16.3882 20.1426C16.4925 20.0366 16.6163 19.9527 16.7527 19.8954C16.8891 19.8381 17.0353 19.8086 17.183 19.8086C17.3306 19.8086 17.4768 19.8381 17.6132 19.8954C17.7496 19.9527 17.8734 20.0366 17.9777 20.1426L20.0442 22.2354C20.1487 22.3408 20.2315 22.4661 20.288 22.6039C20.3445 22.7417 20.3737 22.8896 20.3737 23.0387V25.2655Z" fill="#FFC500"/>
</g>
<defs>
<clipPath id="clip0_505_678">
<rect width="27" height="38" fill="white"/>
</clipPath>
</defs>
</svg>
